<svg width="32" height="32" viewBox="0 0 32 32" fill="none" xmlns="http://www.w3.org/2000/svg">
<path d="M20 24H12C12 25.0609 12.4214 26.0783 13.1716 26.8284C13.9217 27.5786 14.9391 28 16 28C17.0609 28 18.0783 27.5786 18.8284 26.8284C19.5786 26.0783 20 25.0609 20 24Z" stroke="#C3AFE3" stroke-width="2" stroke-linecap="round" stroke-linejoin="round"/>
<path d="M25.84 19.1733C26.1024 19.4361 26.3105 19.7479 26.4523 20.0911C26.5942 20.4343 26.667 20.802 26.6667 21.1733C26.6667 21.923 26.3689 22.642 25.8388 23.1721C25.3087 23.7022 24.5897 24 23.84 24H8.16001C7.41033 24 6.69136 23.7022 6.16126 23.1721C5.63115 22.642 5.33334 21.923 5.33334 21.1733C5.33302 20.802 5.40586 20.4343 5.5477 20.0911C5.68954 19.7479 5.89761 19.4361 6.16001 19.1733L8.00001 17.3333V12C8.00001 9.87827 8.84287 7.84344 10.3432 6.34315C11.8434 4.84285 13.8783 4 16 4C18.1217 4 20.1566 4.84285 21.6569 6.34315C23.1572 7.84344 24 9.87827 24 12V17.3333L25.84 19.1733Z" stroke="#5B21B1" stroke-width="2" stroke-linecap="round" stroke-linejoin="round"/>
</svg>
