<svg width="16" height="16" viewBox="0 0 16 16" fill="none" xmlns="http://www.w3.org/2000/svg">
<path d="M9.33333 3.33325H12.6667C12.8435 3.33325 13.013 3.40349 13.1381 3.52851C13.2631 3.65354 13.3333 3.82311 13.3333 3.99992V13.3333C13.3333 13.5101 13.2631 13.6796 13.1381 13.8047C13.013 13.9297 12.8435 13.9999 12.6667 13.9999H3.33333C3.15652 13.9999 2.98695 13.9297 2.86193 13.8047C2.73691 13.6796 2.66667 13.5101 2.66667 13.3333V3.99992C2.66667 3.82311 2.73691 3.65354 2.86193 3.52851C2.98695 3.40349 3.15652 3.33325 3.33333 3.33325H6.66667" stroke="#5B21B1" stroke-linecap="round" stroke-linejoin="round"/>
<path d="M9.33333 5.33333V2.66667C9.33333 2.29848 9.03486 2 8.66667 2H7.33333C6.96514 2 6.66667 2.29848 6.66667 2.66667V5.33333C6.66667 5.70152 6.96514 6 7.33333 6H8.66667C9.03486 6 9.33333 5.70152 9.33333 5.33333Z" stroke="#C3AFE3" stroke-linecap="round" stroke-linejoin="round"/>
</svg>
