<svg width="24" height="24" viewBox="0 0 24 24" fill="none" xmlns="http://www.w3.org/2000/svg">
<path opacity="0.6" d="M21.5 8.37V15.82C21.5 15.97 21.45 16.12 21.32 16.25C19.87 17.71 17.29 20.31 15.81 21.8C15.68 21.94 15.51 22 15.34 22H7.37C4.68 22 2.5 19.82 2.5 17.13V8.37C2.5 5.68 4.68 3.5 7.37 3.5H16.63C19.32 3.5 21.5 5.68 21.5 8.37Z" fill="white"/>
<path d="M8.29004 6.29C7.87004 6.29 7.54004 5.95 7.54004 5.54V2.75C7.54004 2.34 7.87004 2 8.29004 2C8.71004 2 9.04004 2.34 9.04004 2.75V5.53C9.04004 5.95 8.71004 6.29 8.29004 6.29Z" fill="white"/>
<path d="M15.71 6.29C15.29 6.29 14.96 5.95 14.96 5.54V2.75C14.96 2.33 15.3 2 15.71 2C16.13 2 16.46 2.34 16.46 2.75V5.53C16.46 5.95 16.13 6.29 15.71 6.29Z" fill="white"/>
<path d="M14.78 12.71H7.35999C6.93999 12.71 6.60999 12.37 6.60999 11.96C6.60999 11.55 6.94999 11.21 7.35999 11.21H14.78C15.2 11.21 15.53 11.55 15.53 11.96C15.53 12.37 15.2 12.71 14.78 12.71Z" fill="white"/>
<path d="M12 16.42H7.35999C6.93999 16.42 6.60999 16.08 6.60999 15.67C6.60999 15.25 6.94999 14.92 7.35999 14.92H12C12.42 14.92 12.75 15.26 12.75 15.67C12.75 16.08 12.42 16.42 12 16.42Z" fill="white"/>
<path d="M21.4999 15.82C21.4999 15.97 21.4499 16.12 21.3199 16.25C19.8699 17.71 17.2899 20.31 15.8099 21.8C15.6799 21.94 15.5099 22 15.3399 22C15.0099 22 14.6899 21.74 14.6899 21.36V17.86C14.6899 16.4 15.9299 15.19 17.4499 15.19C18.3999 15.18 19.7199 15.18 20.8499 15.18C21.2399 15.18 21.4999 15.49 21.4999 15.82Z" fill="white"/>
</svg>
