<svg width="26" height="26" viewBox="0 0 26 26" fill="none" xmlns="http://www.w3.org/2000/svg">
<path opacity="0.3" d="M23.2913 9.06752V17.1384C23.2913 17.3009 23.2372 17.4634 23.0963 17.6042C21.5255 19.1859 18.7305 22.0025 17.1272 23.6167C16.9863 23.7684 16.8022 23.8334 16.618 23.8334H7.98384C5.06967 23.8334 2.70801 21.4717 2.70801 18.5575V9.06752C2.70801 6.15335 5.06967 3.79169 7.98384 3.79169H18.0155C20.9297 3.79169 23.2913 6.15335 23.2913 9.06752Z" fill="#5B21B1"/>
<path d="M8.98047 6.81419C8.52547 6.81419 8.16797 6.44585 8.16797 6.00169V2.97919C8.16797 2.53502 8.52547 2.16669 8.98047 2.16669C9.43547 2.16669 9.79297 2.53502 9.79297 2.97919V5.99085C9.79297 6.44585 9.43547 6.81419 8.98047 6.81419Z" fill="#5B21B1"/>
<path d="M17.0195 6.81419C16.5645 6.81419 16.207 6.44585 16.207 6.00169V2.97919C16.207 2.52419 16.5754 2.16669 17.0195 2.16669C17.4745 2.16669 17.832 2.53502 17.832 2.97919V5.99085C17.832 6.44585 17.4745 6.81419 17.0195 6.81419Z" fill="#5B21B1"/>
<path d="M16.012 13.7692H7.97363C7.51863 13.7692 7.16113 13.4008 7.16113 12.9567C7.16113 12.5125 7.52947 12.1442 7.97363 12.1442H16.012C16.467 12.1442 16.8245 12.5125 16.8245 12.9567C16.8245 13.4008 16.467 13.7692 16.012 13.7692Z" fill="#5B21B1"/>
<path d="M13.0003 17.7883H7.97363C7.51863 17.7883 7.16113 17.42 7.16113 16.9758C7.16113 16.5208 7.52947 16.1633 7.97363 16.1633H13.0003C13.4553 16.1633 13.8128 16.5317 13.8128 16.9758C13.8128 17.42 13.4553 17.7883 13.0003 17.7883Z" fill="#5B21B1"/>
<path d="M23.2916 17.1383C23.2916 17.3008 23.2374 17.4633 23.0966 17.6042C21.5257 19.1858 18.7307 22.0025 17.1274 23.6167C16.9866 23.7683 16.8024 23.8333 16.6182 23.8333C16.2607 23.8333 15.9141 23.5517 15.9141 23.14V19.3483C15.9141 17.7667 17.2574 16.4558 18.9041 16.4558C19.9332 16.445 21.3632 16.445 22.5874 16.445C23.0099 16.445 23.2916 16.7808 23.2916 17.1383Z" fill="#5B21B1"/>
</svg>
