<svg width="42" height="42" viewBox="0 0 42 42" fill="none" xmlns="http://www.w3.org/2000/svg">
<path d="M12.25 8.75H5.25M8.75 5.25V12.25" stroke="#C3AFE3" stroke-width="2" stroke-linecap="round" stroke-linejoin="round"/>
<path d="M12.8625 19.25C13.5043 21.0654 14.633 22.6693 16.125 23.8864C17.6171 25.1035 19.4151 25.8869 21.3224 26.1508C23.2297 26.4148 25.1729 26.1493 26.9394 25.3832C28.706 24.6171 30.2279 23.3801 31.3387 21.8073C32.4494 20.2345 33.1064 18.3865 33.2376 16.4655C33.3688 14.5445 32.9692 12.6244 32.0826 10.9152C31.196 9.20593 29.8565 7.77341 28.2105 6.77426C26.5645 5.77512 24.6755 5.24781 22.75 5.25001C21.5564 5.24679 20.3716 5.45413 19.25 5.86251" stroke="#5B21B1" stroke-width="2" stroke-linecap="round" stroke-linejoin="round"/>
<path d="M30.2575 23.0825C32.1137 23.5782 33.7552 24.671 34.9286 26.1923C36.102 27.7136 36.742 29.5788 36.75 31.5V33.25C36.75 33.25 33.25 36.75 22.75 36.75C12.25 36.75 8.75 33.25 8.75 33.25V31.5C8.75797 29.5788 9.39804 27.7136 10.5714 26.1923C11.7448 24.671 13.3863 23.5782 15.2425 23.0825" stroke="#5B21B1" stroke-width="2" stroke-linecap="round" stroke-linejoin="round"/>
</svg>
