<svg width="42" height="42" viewBox="0 0 42 42" fill="none" xmlns="http://www.w3.org/2000/svg">
<path d="M35 5.25H8.75C7.7835 5.25 7 6.0335 7 7V35C7 35.9665 7.7835 36.75 8.75 36.75H35C35.9665 36.75 36.75 35.9665 36.75 35V7C36.75 6.0335 35.9665 5.25 35 5.25Z" stroke="#5B21B1" stroke-width="2" stroke-linecap="round" stroke-linejoin="round"/>
<path d="M8.75 14H5.25M8.75 21H5.25M8.75 28H5.25M22.75 14C22.0578 14 21.3811 14.2053 20.8055 14.5899C20.2299 14.9744 19.7813 15.5211 19.5164 16.1606C19.2515 16.8001 19.1822 17.5039 19.3173 18.1828C19.4523 18.8617 19.7856 19.4854 20.2751 19.9749C20.7646 20.4644 21.3882 20.7977 22.0672 20.9327C22.7461 21.0678 23.4498 20.9985 24.0894 20.7336C24.7289 20.4687 25.2756 20.0201 25.6601 19.4445C26.0447 18.8689 26.25 18.1922 26.25 17.5C26.25 16.5717 25.8812 15.6815 25.2249 15.0251C24.5685 14.3687 23.6783 14 22.75 14ZM28 26.25C28 24.8576 27.4469 23.5223 26.4623 22.5377C25.4777 21.5531 24.1424 21 22.75 21C21.3576 21 20.0223 21.5531 19.0377 22.5377C18.0531 23.5223 17.5 24.8576 17.5 26.25V28H28V26.25Z" stroke="#C3AFE3" stroke-width="2" stroke-linecap="round" stroke-linejoin="round"/>
</svg>
