<svg width="30" height="30" viewBox="0 0 30 30" fill="none" xmlns="http://www.w3.org/2000/svg">
<path d="M24.6874 19.2625L23.6249 18.2C24.1749 17.3625 24.4999 16.375 24.4999 15.3C24.4999 12.375 22.1249 10 19.1999 10C16.2749 10 13.8999 12.375 13.8999 15.3C13.8999 18.225 16.2749 20.6 19.1999 20.6C20.2749 20.6 21.2749 20.275 22.0999 19.725L23.1624 20.7875C23.3749 21 23.6499 21.1 23.9249 21.1C24.1999 21.1 24.4749 21 24.6874 20.7875C25.0999 20.3625 25.0999 19.675 24.6874 19.2625Z" fill="#5B21B1"/>
<path opacity="0.5" d="M6.7627 2.5H23.2253C24.6003 2.5 25.7253 3.63749 25.7253 5.02499V7.79999C25.7253 8.81249 25.1003 10.075 24.4753 10.7L19.1127 15.5C18.3627 16.1375 17.8627 17.4 17.8627 18.4V23.825C17.8627 24.5875 17.3627 25.5875 16.7377 25.975L14.9877 27.1125C13.3627 28.125 11.1253 26.9875 11.1253 24.9625V18.275C11.1253 17.3875 10.6252 16.25 10.1252 15.625L5.38773 10.575C4.76273 9.93749 4.2627 8.8125 4.2627 8.05V5.14999C4.2752 3.63749 5.4002 2.5 6.7627 2.5Z" fill="#5B21B1"/>
</svg>
