<svg width="42" height="42" viewBox="0 0 42 42" fill="none" xmlns="http://www.w3.org/2000/svg">
<g clip-path="url(#clip0_23_137)">
<path d="M23.4733 39.6667H6.88333C6.44406 39.6807 6.00645 39.6063 5.5965 39.4479C5.18656 39.2895 4.81265 39.0502 4.49702 38.7444C4.18139 38.4386 3.93048 38.0724 3.7592 37.6676C3.58792 37.2629 3.49977 36.8278 3.5 36.3883V5.67C3.53343 4.77456 3.92072 3.92895 4.57688 3.31872C5.23305 2.70849 6.10449 2.38348 7 2.415H23.59C24.0195 2.40538 24.4466 2.48308 24.8452 2.6434C25.2438 2.80373 25.6057 3.04333 25.909 3.34768C26.2122 3.65204 26.4505 4.01481 26.6094 4.414C26.7683 4.81319 26.8445 5.24049 26.8333 5.67V36.3883C26.8319 36.8254 26.7434 37.2577 26.573 37.6601C26.4026 38.0626 26.1537 38.427 25.8409 38.7322C25.5281 39.0374 25.1577 39.2772 24.7512 39.4377C24.3447 39.5981 23.9103 39.676 23.4733 39.6667ZM6.88333 4.66667C6.7481 4.66199 6.6133 4.6844 6.48686 4.73259C6.36042 4.78077 6.24488 4.85374 6.14705 4.94722C6.04922 5.04071 5.97107 5.1528 5.9172 5.27693C5.86332 5.40105 5.83481 5.5347 5.83333 5.67V36.3883C5.83333 36.6575 5.94027 36.9157 6.13062 37.106C6.32097 37.2964 6.57914 37.4033 6.84833 37.4033H23.4733C23.7526 37.4071 24.0227 37.3041 24.2287 37.1155C24.4347 36.9269 24.5609 36.6668 24.5817 36.3883V5.67C24.5581 5.39359 24.4306 5.13638 24.225 4.95021C24.0193 4.76403 23.7507 4.66271 23.4733 4.66667H6.88333Z" fill="#5B21B1"/>
<path d="M34.4517 39.6667C33.9125 39.6713 33.3778 39.5691 32.8783 39.3659C32.3789 39.1628 31.9246 38.8628 31.5417 38.4831C31.1588 38.1035 30.8549 37.6518 30.6475 37.1541C30.4401 36.6564 30.3334 36.1225 30.3334 35.5833V26.8333C30.3334 26.2145 30.0875 25.621 29.65 25.1834C29.2124 24.7458 28.6189 24.5 28 24.5H26.3317C26.0223 24.5 25.7255 24.3771 25.5067 24.1583C25.288 23.9395 25.165 23.6427 25.165 23.3333C25.165 23.0239 25.288 22.7272 25.5067 22.5084C25.7255 22.2896 26.0223 22.1667 26.3317 22.1667H28C29.2377 22.1667 30.4247 22.6583 31.2999 23.5335C32.175 24.4087 32.6667 25.5956 32.6667 26.8333V35.5833C32.6667 36.0475 32.8511 36.4926 33.1793 36.8208C33.5075 37.1489 33.9526 37.3333 34.4167 37.3333C34.8808 37.3333 35.326 37.1489 35.6541 36.8208C35.9823 36.4926 36.1667 36.0475 36.1667 35.5833V20.1833L32.515 12.0167C32.2969 11.5616 31.9542 11.1776 31.5268 10.9092C31.0994 10.6407 30.6047 10.4989 30.1 10.5H29.2484C28.939 10.5 28.6422 10.3771 28.4234 10.1583C28.2046 9.93949 28.0817 9.64274 28.0817 9.33332C28.0817 9.0239 28.2046 8.72716 28.4234 8.50837C28.6422 8.28957 28.939 8.16666 29.2484 8.16666H30.1C31.0701 8.16616 32.0195 8.44692 32.8333 8.97493C33.647 9.50295 34.2902 10.2556 34.685 11.1417L38.43 19.495C38.4985 19.6452 38.5343 19.8082 38.535 19.9733V35.5833C38.535 36.6663 38.1048 37.7049 37.3391 38.4707C36.5733 39.2364 35.5347 39.6667 34.4517 39.6667Z" fill="#C3AFE3"/>
<path d="M21 10.5H9.33329C9.02387 10.5 8.72713 10.3771 8.50833 10.1583C8.28954 9.93949 8.16663 9.64274 8.16663 9.33332C8.16663 9.0239 8.28954 8.72716 8.50833 8.50837C8.72713 8.28957 9.02387 8.16666 9.33329 8.16666H21C21.3094 8.16666 21.6061 8.28957 21.8249 8.50837C22.0437 8.72716 22.1666 9.0239 22.1666 9.33332C22.1666 9.64274 22.0437 9.93949 21.8249 10.1583C21.6061 10.3771 21.3094 10.5 21 10.5Z" fill="#C3AFE3"/>
<path d="M21 15.1667H9.33329C9.02387 15.1667 8.72713 15.0438 8.50833 14.825C8.28954 14.6062 8.16663 14.3094 8.16663 14C8.16663 13.6906 8.28954 13.3938 8.50833 13.1751C8.72713 12.9563 9.02387 12.8333 9.33329 12.8333H21C21.3094 12.8333 21.6061 12.9563 21.8249 13.1751C22.0437 13.3938 22.1666 13.6906 22.1666 14C22.1666 14.3094 22.0437 14.6062 21.8249 14.825C21.6061 15.0438 21.3094 15.1667 21 15.1667Z" fill="#C3AFE3"/>
<path d="M29.1667 14.0933C28.8572 14.0933 28.5605 13.9704 28.3417 13.7516C28.1229 13.5328 28 13.2361 28 12.9267V5.92668C28 5.61726 28.1229 5.32051 28.3417 5.10172C28.5605 4.88293 28.8572 4.76001 29.1667 4.76001C29.4761 4.76001 29.7728 4.88293 29.9916 5.10172C30.2104 5.32051 30.3333 5.61726 30.3333 5.92668V12.9267C30.3333 13.2361 30.2104 13.5328 29.9916 13.7516C29.7728 13.9704 29.4761 14.0933 29.1667 14.0933Z" fill="#5B21B1"/>
</g>
<defs>
<clipPath id="clip0_23_137">
<rect width="42" height="42" fill="white"/>
</clipPath>
</defs>
</svg>
