<svg width="42" height="42" viewBox="0 0 42 42" fill="none" xmlns="http://www.w3.org/2000/svg">
<path d="M14.625 22.4167H10.375C9.98404 22.4167 9.66669 22.734 9.66669 23.125V25.9584C9.66669 26.3494 9.98404 26.6667 10.375 26.6667H14.625C15.016 26.6667 15.3334 26.3494 15.3334 25.9584V23.125C15.3334 22.734 15.016 22.4167 14.625 22.4167ZM13.9167 25.25H11.0833V23.8334H13.9167V25.25Z" fill="#C3AFE3"/>
<path d="M37.2916 9.66663C37.6826 9.66663 37.9999 9.34928 37.9999 8.95828V4.70829C37.9999 4.31735 37.6826 4 37.2916 4H7.54166C7.30506 4 7.08406 4.119 6.95231 4.31589L4.11896 8.56588C3.97446 8.78263 3.96032 9.06313 4.08357 9.29263C4.20682 9.52213 4.44621 9.66663 4.70832 9.66663H29.5V36.5832H18.1666V29.7507C18.8509 30.5964 19.6244 31.3855 20.3327 32.0811C19.5125 32.9084 18.9118 33.5856 19.2263 34.3307C19.514 35.0121 20.354 35.168 21.5341 35.168C21.5936 35.168 21.6545 35.1666 21.7211 35.1666C22.1092 35.1623 23.1406 35.1496 23.4494 34.3789C23.7285 33.6848 23.2483 33.009 22.3303 32.0641C23.227 31.088 24.0247 29.9532 23.8292 28.6839C23.4226 26.0461 20.6941 24.5657 19.5834 24.0671V23.125C19.5834 22.734 19.2661 22.4166 18.8751 22.4166C18.4841 22.4166 18.1667 22.734 18.1667 23.125V21.7083C18.1667 20.5367 17.2133 19.5833 16.0417 19.5833H8.95837C7.78677 19.5833 6.83338 20.5367 6.83338 21.7083V36.5833H4.70838C4.31738 36.5833 4.00003 36.9006 4.00003 37.2916C4.00003 37.6826 4.31738 37.9999 4.70838 37.9999H37.2917C37.6827 37.9999 38 37.6826 38 37.2916C38 36.9006 37.6827 36.5832 37.2917 36.5832H35.1667V9.66663H37.2916ZM21.6998 33.7499C21.2394 33.7556 20.9433 33.7343 20.7478 33.7088C20.9037 33.5232 21.1261 33.2923 21.3372 33.0798C21.5738 33.3249 21.7863 33.5572 21.9293 33.7414C21.8641 33.7457 21.7891 33.7485 21.6998 33.7499ZM18.1666 25.9583C18.1666 26.3493 18.484 26.6667 18.875 26.6667C19.266 26.6667 19.5833 26.3493 19.5833 25.9583V25.6537C20.6246 26.2133 22.1815 27.2942 22.428 28.8993C22.53 29.5637 21.9661 30.3528 21.3216 31.0639C20.1727 29.9348 18.8268 28.5692 18.1667 27.1893V25.9583H18.1666ZM16.75 36.5833H8.25002V21.7083C8.25002 21.3173 8.56737 21 8.95837 21H16.0417C16.4327 21 16.7501 21.3173 16.7501 21.7083V36.5833H16.75ZM34.4583 8.24999C34.0673 8.24999 33.75 8.56734 33.75 8.95834V36.5833H30.9181V8.95834C30.9181 8.56734 30.6007 8.24999 30.2097 8.24999H6.03292L7.92131 5.41664H36.5832V8.24999H34.4583Z" fill="#5B21B1"/>
</svg>
