<svg width="42" height="42" viewBox="0 0 42 42" fill="none" xmlns="http://www.w3.org/2000/svg">
<path d="M17.5 17.5L21 21L28 14" stroke="#C3AFE3" stroke-width="2" stroke-linecap="round" stroke-linejoin="round"/>
<path d="M32.375 36.75C33.5353 36.75 34.6481 36.2891 35.4686 35.4686C36.2891 34.6481 36.75 33.5353 36.75 32.375V7C36.75 6.53587 36.5656 6.09075 36.2374 5.76256C35.9092 5.43437 35.4641 5.25 35 5.25H10.5C10.0359 5.25 9.59075 5.43437 9.26256 5.76256C8.93437 6.09075 8.75 6.53587 8.75 7V28H28M32.375 36.75C31.2147 36.75 30.1019 36.2891 29.2814 35.4686C28.4609 34.6481 28 33.5353 28 32.375V28M32.375 36.75H9.625C8.46468 36.75 7.35188 36.2891 6.53141 35.4686C5.71094 34.6481 5.25 33.5353 5.25 32.375V28H28" stroke="#5B21B1" stroke-width="2" stroke-linecap="round" stroke-linejoin="round"/>
</svg>
