<svg width="42" height="42" viewBox="0 0 42 42" fill="none" xmlns="http://www.w3.org/2000/svg">
<path d="M36.75 10.885L6.99997 22.75C6.93031 22.1692 6.89525 21.5849 6.89497 21C6.88781 18.7968 7.40996 16.6242 8.41747 14.665C9.58703 12.3601 11.3718 10.4239 13.5741 9.07101C15.7765 7.71812 18.3103 7.0013 20.895 6.99997C22.4873 6.99653 24.0681 7.26889 25.5675 7.80497" stroke="#5B21B1" stroke-width="2" stroke-linecap="round" stroke-linejoin="round"/>
<path d="M16.415 34.195C19.6215 35.3329 23.1326 35.2642 26.2921 34.0017C29.4516 32.7392 32.0432 30.3693 33.5825 27.335C34.59 25.3757 35.1122 23.2031 35.105 21C35.1054 20.4151 35.0704 19.8307 35 19.25L5.25 31.115" stroke="#C3AFE3" stroke-width="2" stroke-linecap="round" stroke-linejoin="round"/>
</svg>
