<svg width="42" height="42" viewBox="0 0 42 42" fill="none" xmlns="http://www.w3.org/2000/svg">
<path d="M29.75 29.75H36.75M33.25 26.25V33.25" stroke="#C3AFE3" stroke-width="2" stroke-linecap="round" stroke-linejoin="round"/>
<path d="M26.25 22.925C25.6746 22.8044 25.0879 22.7458 24.5 22.75H14C11.6794 22.75 9.45376 23.6719 7.81282 25.3128C6.17187 26.9538 5.25 29.1794 5.25 31.5V33.25C5.25 33.25 8.75 36.75 19.25 36.75C21.0055 36.759 22.7596 36.6479 24.5 36.4175C25.1125 36.4175 25.7075 36.2425 26.25 36.12" stroke="#5B21B1" stroke-width="2" stroke-linecap="round" stroke-linejoin="round"/>
<path d="M19.25 22.75C24.0825 22.75 28 18.8325 28 14C28 9.16751 24.0825 5.25 19.25 5.25C14.4175 5.25 10.5 9.16751 10.5 14C10.5 18.8325 14.4175 22.75 19.25 22.75Z" stroke="#5B21B1" stroke-width="2" stroke-linecap="round" stroke-linejoin="round"/>
</svg>
