<svg width="42" height="42" viewBox="0 0 42 42" fill="none" xmlns="http://www.w3.org/2000/svg">
<path d="M15.75 22.75H26.25C28.5706 22.75 30.7962 23.6719 32.4372 25.3128C34.0781 26.9538 35 29.1794 35 31.5C35 32.8924 34.4469 34.2277 33.4623 35.2123C32.4777 36.1969 31.1424 36.75 29.75 36.75H12.25C10.8576 36.75 9.52226 36.1969 8.53769 35.2123C7.55312 34.2277 7 32.8924 7 31.5C7 29.1794 7.92187 26.9538 9.56282 25.3128C11.2038 23.6719 13.4294 22.75 15.75 22.75Z" stroke="#C3AFE3" stroke-width="2" stroke-linecap="round" stroke-linejoin="round"/>
<path d="M21 22.75C25.8325 22.75 29.75 18.8325 29.75 14C29.75 9.16751 25.8325 5.25 21 5.25C16.1675 5.25 12.25 9.16751 12.25 14C12.25 18.8325 16.1675 22.75 21 22.75Z" stroke="#5B21B1" stroke-width="2" stroke-linecap="round" stroke-linejoin="round"/>
</svg>
