<svg width="16" height="16" viewBox="0 0 16 16" fill="none" xmlns="http://www.w3.org/2000/svg">
<path d="M10.6199 12C10.6517 12.0991 10.6674 12.2026 10.6666 12.3067C10.6666 13.24 9.47328 14 7.99995 14C6.52662 14 5.33328 13.24 5.33328 12.3067C5.33246 12.2026 5.34821 12.0991 5.37995 12" stroke="#C3AFE3" stroke-linecap="round" stroke-linejoin="round"/>
<path d="M8 6C7.46957 6 6.96086 5.78929 6.58579 5.41421C6.21071 5.03914 6 4.53043 6 4C6 3.46957 6.21071 2.96086 6.58579 2.58579C6.96086 2.21071 7.46957 2 8 2C8.53043 2 9.03914 2.21071 9.41421 2.58579C9.78929 2.96086 10 3.46957 10 4C10 4.53043 9.78929 5.03914 9.41421 5.41421C9.03914 5.78929 8.53043 6 8 6ZM8 6V11.3333" stroke="#5B21B1" stroke-linecap="round" stroke-linejoin="round"/>
</svg>
