<svg width="42" height="42" viewBox="0 0 42 42" fill="none" xmlns="http://www.w3.org/2000/svg">
<path d="M8.75 17.5V7" stroke="#5B21B1" stroke-width="2" stroke-linecap="round" stroke-linejoin="round"/>
<path d="M7 25.585V19.25C7 18.7859 7.18437 18.3408 7.51256 18.0126C7.84075 17.6844 8.28587 17.5 8.75 17.5H22.75L33.7225 20.6325C34.101 20.7384 34.4329 20.9686 34.6646 21.286C34.8964 21.6035 35.0145 21.9897 35 22.3825V28.2975" stroke="#5B21B1" stroke-width="2" stroke-linecap="round" stroke-linejoin="round"/>
<path d="M21 7L22.75 17.5" stroke="#5B21B1" stroke-width="2" stroke-linecap="round" stroke-linejoin="round"/>
<path d="M29.4874 31.5H15.6274" stroke="#5B21B1" stroke-width="2" stroke-linecap="round" stroke-linejoin="round"/>
<path d="M7 7H24.5" stroke="#5B21B1" stroke-width="2" stroke-linecap="round" stroke-linejoin="round"/>
<path d="M15.75 29.75C15.75 30.7884 15.4421 31.8034 14.8652 32.6667C14.2883 33.5301 13.4684 34.203 12.5091 34.6004C11.5498 34.9977 10.4942 35.1017 9.47578 34.8991C8.45738 34.6966 7.52192 34.1965 6.78769 33.4623C6.05347 32.7281 5.55345 31.7926 5.35088 30.7742C5.14831 29.7558 5.25227 28.7002 5.64963 27.7409C6.04699 26.7816 6.7199 25.9617 7.58326 25.3848C8.44662 24.8079 9.46165 24.5 10.5 24.5C11.8924 24.5 13.2277 25.0531 14.2123 26.0377C15.1969 27.0223 15.75 28.3576 15.75 29.75ZM36.75 31.5C36.75 32.1922 36.5447 32.8689 36.1601 33.4445C35.7756 34.0201 35.2289 34.4687 34.5894 34.7336C33.9499 34.9985 33.2461 35.0678 32.5672 34.9327C31.8883 34.7977 31.2646 34.4644 30.7751 33.9749C30.2856 33.4854 29.9523 32.8617 29.8173 32.1828C29.6822 31.5039 29.7515 30.8001 30.0164 30.1606C30.2813 29.5211 30.7299 28.9744 31.3055 28.5899C31.8811 28.2053 32.5578 28 33.25 28C34.1783 28 35.0685 28.3687 35.7249 29.0251C36.3813 29.6815 36.75 30.5717 36.75 31.5Z" stroke="#C3AFE3" stroke-width="2" stroke-linecap="round" stroke-linejoin="round"/>
</svg>
