<svg width="42" height="42" viewBox="0 0 42 42" fill="none" xmlns="http://www.w3.org/2000/svg">
<path d="M17.29 15.75L24.6575 5.25L33.25 11.27L30.1175 15.75H17.29ZM17.29 15.75H9.76501L15.9075 7L21 10.5L17.29 15.75Z" stroke="#C3AFE3" stroke-width="2" stroke-linecap="round" stroke-linejoin="round"/>
<path d="M35 29.75V35C35 35.4641 34.8156 35.9092 34.4874 36.2374C34.1592 36.5656 33.7141 36.75 33.25 36.75H7C6.53587 36.75 6.09075 36.5656 5.76256 36.2374C5.43437 35.9092 5.25 35.4641 5.25 35V17.5C5.25 17.0359 5.43437 16.5908 5.76256 16.2626C6.09075 15.9344 6.53587 15.75 7 15.75H33.25C33.7141 15.75 34.1592 15.9344 34.4874 16.2626C34.8156 16.5908 35 17.0359 35 17.5V22.75" stroke="#5B21B1" stroke-width="2" stroke-linecap="round" stroke-linejoin="round"/>
<path d="M28 22.75H36.75V29.75H28C27.5359 29.75 27.0908 29.5656 26.7626 29.2374C26.4344 28.9092 26.25 28.4641 26.25 28V24.5C26.25 24.0359 26.4344 23.5908 26.7626 23.2626C27.0908 22.9344 27.5359 22.75 28 22.75Z" stroke="#C3AFE3" stroke-width="2" stroke-linecap="round" stroke-linejoin="round"/>
</svg>
