<svg width="22" height="22" viewBox="0 0 22 22" fill="none" xmlns="http://www.w3.org/2000/svg">
<path d="M16.5001 6.41665H12.8334L13.2917 4.58331H16.0418L16.5001 6.41665ZM11.0001 10.0833C10.6375 10.0833 10.283 10.1908 9.98154 10.3923C9.68005 10.5937 9.44506 10.8801 9.3063 11.2151C9.16754 11.5501 9.13124 11.9187 9.20198 12.2743C9.27272 12.6299 9.44732 12.9566 9.70372 13.213C9.96012 13.4694 10.2868 13.644 10.6424 13.7147C10.998 13.7855 11.3667 13.7492 11.7017 13.6104C12.0367 13.4717 12.323 13.2367 12.5244 12.9352C12.7259 12.6337 12.8334 12.2792 12.8334 11.9166C12.8334 11.4304 12.6403 10.9641 12.2964 10.6203C11.9526 10.2765 11.4863 10.0833 11.0001 10.0833Z" stroke="#C3AFE3" stroke-linecap="round" stroke-linejoin="round"/>
<path d="M10.0833 6.41667L9.42333 5.0875C9.34646 4.93494 9.22848 4.80689 9.08271 4.7178C8.93694 4.62872 8.76917 4.58215 8.59833 4.58334H3.66667C3.42355 4.58334 3.19039 4.67991 3.01849 4.85182C2.84658 5.02373 2.75 5.25689 2.75 5.5V16.5C2.75 16.7431 2.84658 16.9763 3.01849 17.1482C3.19039 17.3201 3.42355 17.4167 3.66667 17.4167H18.3333C18.5764 17.4167 18.8096 17.3201 18.9815 17.1482C19.1534 16.9763 19.25 16.7431 19.25 16.5V7.33334C19.25 7.09022 19.1534 6.85706 18.9815 6.68515C18.8096 6.51325 18.5764 6.41667 18.3333 6.41667H10.0833Z" stroke="#5B21B1" stroke-linecap="round" stroke-linejoin="round"/>
</svg>
