<svg width="16" height="16" viewBox="0 0 16 16" fill="none" xmlns="http://www.w3.org/2000/svg">
<path d="M12.2933 10.4C12.1874 10.2708 12.0368 10.186 11.8713 10.1626C11.7059 10.1391 11.5376 10.1786 11.4 10.2733C10.3996 10.9613 9.21406 11.3297 7.99996 11.3297C6.78586 11.3297 5.60032 10.9613 4.59996 10.2733C4.46227 10.1786 4.29405 10.1391 4.12861 10.1626C3.96316 10.186 3.81256 10.2708 3.70663 10.4C3.03452 11.23 2.66743 12.2654 2.66663 13.3333C2.66663 13.5101 2.73686 13.6797 2.86189 13.8047C2.98691 13.9298 3.15648 14 3.33329 14H12.6666C12.8434 14 13.013 13.9298 13.138 13.8047C13.2631 13.6797 13.3333 13.5101 13.3333 13.3333C13.3325 12.2654 12.9654 11.23 12.2933 10.4Z" stroke="#C3AFE3" stroke-linecap="round" stroke-linejoin="round"/>
<path d="M7.99996 8.66667C9.84091 8.66667 11.3333 7.17428 11.3333 5.33333C11.3333 3.49238 9.84091 2 7.99996 2C6.15901 2 4.66663 3.49238 4.66663 5.33333C4.66663 7.17428 6.15901 8.66667 7.99996 8.66667Z" stroke="#5B21B1" stroke-linecap="round" stroke-linejoin="round"/>
</svg>
