<svg width="22" height="22" viewBox="0 0 22 22" fill="none" xmlns="http://www.w3.org/2000/svg">
<path d="M16.1518 9.85417C15.7577 9.85417 15.446 9.53333 15.446 9.14833C15.446 8.80916 15.1068 8.10333 14.5385 7.48917C13.9793 6.89333 13.3652 6.545 12.8518 6.545C12.4577 6.545 12.146 6.22416 12.146 5.83916C12.146 5.45416 12.4668 5.13333 12.8518 5.13333C13.7685 5.13333 14.731 5.62833 15.5743 6.5175C16.3627 7.35167 16.8668 8.3875 16.8668 9.13917C16.8668 9.53333 16.546 9.85417 16.1518 9.85417Z" fill="#5B21B1"/>
<path d="M19.4606 9.85418C19.0665 9.85418 18.7548 9.53334 18.7548 9.14834C18.7548 5.89418 16.1056 3.25418 12.8606 3.25418C12.4665 3.25418 12.1548 2.93334 12.1548 2.54834C12.1548 2.16334 12.4665 1.83334 12.8515 1.83334C16.8848 1.83334 20.1665 5.11501 20.1665 9.14834C20.1665 9.53334 19.8456 9.85418 19.4606 9.85418Z" fill="#5B21B1"/>
<path opacity="0.3" d="M10.8077 13.0258L7.81016 16.0233C7.48016 15.73 7.15933 15.4275 6.84766 15.1158C5.9035 14.1625 5.051 13.1633 4.29016 12.1183C3.5385 11.0733 2.9335 10.0283 2.4935 8.99251C2.0535 7.94751 1.8335 6.94834 1.8335 5.99501C1.8335 5.37168 1.9435 4.77584 2.1635 4.22584C2.3835 3.66668 2.73183 3.15334 3.21766 2.69501C3.80433 2.11751 4.446 1.83334 5.12433 1.83334C5.381 1.83334 5.63766 1.88834 5.86683 1.99834C6.10516 2.10834 6.316 2.27334 6.481 2.51168L8.60766 5.50918C8.77266 5.73834 8.89183 5.94918 8.97433 6.15084C9.05683 6.34334 9.10266 6.53584 9.10266 6.71001C9.10266 6.93001 9.0385 7.15001 8.91016 7.36084C8.791 7.57168 8.61683 7.79168 8.39683 8.01168L7.70016 8.73584C7.59933 8.83668 7.5535 8.95584 7.5535 9.10251C7.5535 9.17584 7.56266 9.24001 7.581 9.31334C7.6085 9.38668 7.636 9.44168 7.65433 9.49668C7.81933 9.79918 8.1035 10.1933 8.50683 10.67C8.91933 11.1467 9.35933 11.6325 9.836 12.1183C10.166 12.4392 10.4868 12.7508 10.8077 13.0258Z" fill="#5B21B1"/>
<path d="M20.139 16.8025C20.139 17.0592 20.0931 17.325 20.0015 17.5817C19.974 17.655 19.9465 17.7283 19.9098 17.8017C19.754 18.1317 19.5523 18.4433 19.2865 18.7367C18.8373 19.2317 18.3423 19.5892 17.7831 19.8183C17.774 19.8183 17.7648 19.8275 17.7556 19.8275C17.2148 20.0475 16.6281 20.1667 15.9956 20.1667C15.0606 20.1667 14.0615 19.9467 13.0073 19.4975C11.9531 19.0483 10.899 18.4433 9.85397 17.6825C9.49647 17.4167 9.13897 17.1508 8.7998 16.8667L11.7973 13.8692C12.054 14.0617 12.2831 14.2083 12.4756 14.3092C12.5215 14.3275 12.5765 14.355 12.6406 14.3825C12.714 14.41 12.7873 14.4192 12.8698 14.4192C13.0256 14.4192 13.1448 14.3642 13.2456 14.2633L13.9423 13.5758C14.1715 13.3467 14.3915 13.1725 14.6023 13.0625C14.8131 12.9342 15.024 12.87 15.2531 12.87C15.4273 12.87 15.6106 12.9067 15.8123 12.9892C16.014 13.0717 16.2248 13.1908 16.454 13.3467L19.4881 15.5008C19.7265 15.6658 19.8915 15.8583 19.9923 16.0875C20.084 16.3167 20.139 16.5458 20.139 16.8025Z" fill="#5B21B1"/>
</svg>
