<svg width="22" height="22" viewBox="0 0 22 22" fill="none" xmlns="http://www.w3.org/2000/svg">
<path d="M19.974 19.03L19.314 18.37C19.6532 17.8567 19.8548 17.2333 19.8548 16.5733C19.8548 14.7583 18.3882 13.2917 16.5732 13.2917C14.7582 13.2917 13.2915 14.7583 13.2915 16.5733C13.2915 18.3883 14.7582 19.855 16.5732 19.855C17.2423 19.855 17.8565 19.6533 18.3698 19.3142L19.0298 19.9742C19.1582 20.1025 19.3323 20.1667 19.4973 20.1667C19.6715 20.1667 19.8365 20.1025 19.9648 19.9742C20.2307 19.7083 20.2307 19.2867 19.974 19.03Z" fill="#5B21B1"/>
<path opacity="0.3" d="M1.86062 13.4108C1.86062 13.4383 1.84229 13.475 1.84229 13.5025C2.68562 15.1892 4.06063 16.5733 5.74729 17.4075C5.77479 17.4075 5.81145 17.3892 5.83895 17.3892C5.52729 16.3258 5.28896 15.235 5.11479 14.1441C4.01479 13.9608 2.92396 13.7225 1.86062 13.4108Z" fill="#5B21B1"/>
<path opacity="0.3" d="M17.4811 5.89414C16.6194 4.08831 15.1619 2.63082 13.3652 1.77832C13.6952 2.86915 13.9702 3.98749 14.1536 5.10582C15.2719 5.28916 16.3902 5.55498 17.4811 5.89414Z" fill="#5B21B1"/>
<path opacity="0.3" d="M1.76904 5.89416C2.86904 5.56416 3.98739 5.28917 5.10572 5.10584C5.28906 4.015 5.51822 2.93334 5.82988 1.87001C5.80238 1.87001 5.76571 1.85165 5.73821 1.85165C4.01488 2.70415 2.61238 4.14332 1.76904 5.89416Z" fill="#5B21B1"/>
<path opacity="0.3" d="M12.6682 4.91333C12.4482 3.72166 12.1732 2.53001 11.7791 1.37501C11.7607 1.31084 11.7607 1.25585 11.7516 1.18252C11.0732 1.01752 10.3582 0.907501 9.62488 0.907501C8.88238 0.907501 8.17655 1.00835 7.48905 1.18252C7.47988 1.24668 7.48904 1.30168 7.47071 1.37501C7.08571 2.53001 6.80154 3.72166 6.58154 4.91333C8.60738 4.69333 10.6424 4.69333 12.6682 4.91333Z" fill="#5B21B1"/>
<path opacity="0.3" d="M4.91354 6.58167C3.71271 6.80167 2.53021 7.07667 1.37521 7.47083C1.31104 7.48917 1.25604 7.48917 1.1827 7.49833C1.0177 8.17666 0.907715 8.89167 0.907715 9.62501C0.907715 10.3675 1.00854 11.0733 1.1827 11.7608C1.24687 11.77 1.30188 11.7608 1.37521 11.7792C2.53021 12.1642 3.71271 12.4483 4.91354 12.6683C4.69354 10.6425 4.69354 8.6075 4.91354 6.58167Z" fill="#5B21B1"/>
<path opacity="0.3" d="M18.0585 7.49833C17.9943 7.49833 17.9393 7.48917 17.866 7.47083C16.711 7.08583 15.5193 6.80167 14.3276 6.58167C14.5568 8.6075 14.5568 10.6425 14.3276 12.6592C15.5193 12.4392 16.711 12.1642 17.866 11.77C17.9301 11.7517 17.9851 11.7608 18.0585 11.7517C18.2235 11.0642 18.3335 10.3583 18.3335 9.61583C18.3335 8.89166 18.2326 8.18583 18.0585 7.49833Z" fill="#5B21B1"/>
<path opacity="0.3" d="M6.58154 14.3367C6.80154 15.5375 7.07654 16.72 7.47071 17.875C7.48904 17.9392 7.47988 17.9941 7.48905 18.0675C8.17655 18.2325 8.88238 18.3425 9.62488 18.3425C10.3582 18.3425 11.0732 18.2416 11.7516 18.0675C11.7607 18.0033 11.7607 17.9483 11.7791 17.875C12.1641 16.72 12.4482 15.5375 12.6682 14.3367C11.6599 14.4467 10.6424 14.5292 9.62488 14.5292C8.60738 14.52 7.58988 14.4467 6.58154 14.3367Z" fill="#5B21B1"/>
<path opacity="0.3" d="M6.3708 6.37083C6.0958 8.53416 6.0958 10.7158 6.3708 12.8883C8.53413 13.1633 10.7158 13.1633 12.8883 12.8883C13.1633 10.725 13.1633 8.54333 12.8883 6.37083C10.7158 6.09583 8.53413 6.09583 6.3708 6.37083Z" fill="#5B21B1"/>
</svg>
