<svg width="22" height="22" viewBox="0 0 22 22" fill="none" xmlns="http://www.w3.org/2000/svg">
<path d="M17.8752 7.33333C19.1408 7.33333 20.1668 6.30732 20.1668 5.04167C20.1668 3.77601 19.1408 2.75 17.8752 2.75C16.6095 2.75 15.5835 3.77601 15.5835 5.04167C15.5835 6.30732 16.6095 7.33333 17.8752 7.33333Z" fill="#5B21B1"/>
<path d="M17.8752 7.33333C19.1408 7.33333 20.1668 6.30732 20.1668 5.04167C20.1668 3.77601 19.1408 2.75 17.8752 2.75C16.6095 2.75 15.5835 3.77601 15.5835 5.04167C15.5835 6.30732 16.6095 7.33333 17.8752 7.33333Z" fill="#5B21B1"/>
<path opacity="0.3" d="M18.9935 8.53417C19.571 8.35083 20.1668 8.80001 20.1668 9.41417V14.2175C20.1668 17.4258 18.3335 18.8008 15.5835 18.8008H6.41683C3.66683 18.8008 1.8335 17.4258 1.8335 14.2175V7.80083C1.8335 4.5925 3.66683 3.2175 6.41683 3.2175H13.3926C13.9885 3.2175 14.3918 3.76751 14.2818 4.34501C14.1718 4.88584 14.1902 5.46334 14.3552 6.05917C14.6943 7.2875 15.6935 8.26833 16.9218 8.58917C17.646 8.7725 18.3518 8.73584 18.9935 8.53417Z" fill="#5B21B1"/>
<path d="M10.9999 11.7975C10.2299 11.7975 9.45071 11.5592 8.85488 11.0733L5.98571 8.78168C5.69238 8.54335 5.63738 8.11251 5.87571 7.81918C6.11405 7.52584 6.54487 7.47085 6.8382 7.70918L9.70737 10.0008C10.404 10.56 11.5865 10.56 12.2832 10.0008L13.3649 9.13918C13.6582 8.90084 14.0982 8.94667 14.3274 9.24917C14.5657 9.54251 14.5199 9.98251 14.2174 10.2117L13.1357 11.0733C12.549 11.5592 11.7699 11.7975 10.9999 11.7975Z" fill="#5B21B1"/>
</svg>
