<svg width="26" height="26" viewBox="0 0 26 26" fill="none" xmlns="http://www.w3.org/2000/svg">
<path d="M7.84341 2.16669H5.78508C3.41258 2.16669 2.16675 3.41252 2.16675 5.77419V7.83252C2.16675 10.1942 3.41258 11.44 5.77425 11.44H7.83258C10.1942 11.44 11.4401 10.1942 11.4401 7.83252V5.77419C11.4509 3.41252 10.2051 2.16669 7.84341 2.16669Z" fill="white"/>
<path opacity="0.6" d="M20.2259 2.16669H18.1676C15.8059 2.16669 14.5601 3.41252 14.5601 5.77419V7.83252C14.5601 10.1942 15.8059 11.44 18.1676 11.44H20.2259C22.5876 11.44 23.8334 10.1942 23.8334 7.83252V5.77419C23.8334 3.41252 22.5876 2.16669 20.2259 2.16669Z" fill="white"/>
<path d="M20.2259 14.5492H18.1676C15.8059 14.5492 14.5601 15.795 14.5601 18.1567V20.215C14.5601 22.5767 15.8059 23.8225 18.1676 23.8225H20.2259C22.5876 23.8225 23.8334 22.5767 23.8334 20.215V18.1567C23.8334 15.795 22.5876 14.5492 20.2259 14.5492Z" fill="white"/>
<path opacity="0.6" d="M7.84341 14.5492H5.78508C3.41258 14.5492 2.16675 15.795 2.16675 18.1567V20.215C2.16675 22.5875 3.41258 23.8334 5.77425 23.8334H7.83258C10.1942 23.8334 11.4401 22.5875 11.4401 20.2259V18.1675C11.4509 15.795 10.2051 14.5492 7.84341 14.5492Z" fill="white"/>
</svg>
