<svg width="26" height="26" viewBox="0 0 26 26" fill="none" xmlns="http://www.w3.org/2000/svg">
<path d="M7.84329 2.16669H5.78496C3.41246 2.16669 2.16663 3.41252 2.16663 5.77419V7.83252C2.16663 10.1942 3.41246 11.44 5.77413 11.44H7.83246C10.1941 11.44 11.44 10.1942 11.44 7.83252V5.77419C11.4508 3.41252 10.205 2.16669 7.84329 2.16669Z" fill="#5B21B1"/>
<path opacity="0.3" d="M20.2259 2.16669H18.1676C15.8059 2.16669 14.5601 3.41252 14.5601 5.77419V7.83252C14.5601 10.1942 15.8059 11.44 18.1676 11.44H20.2259C22.5876 11.44 23.8334 10.1942 23.8334 7.83252V5.77419C23.8334 3.41252 22.5876 2.16669 20.2259 2.16669Z" fill="#5B21B1"/>
<path d="M20.2259 14.5492H18.1676C15.8059 14.5492 14.5601 15.795 14.5601 18.1567V20.215C14.5601 22.5767 15.8059 23.8225 18.1676 23.8225H20.2259C22.5876 23.8225 23.8334 22.5767 23.8334 20.215V18.1567C23.8334 15.795 22.5876 14.5492 20.2259 14.5492Z" fill="#5B21B1"/>
<path opacity="0.3" d="M7.84329 14.5492H5.78496C3.41246 14.5492 2.16663 15.795 2.16663 18.1567V20.215C2.16663 22.5875 3.41246 23.8334 5.77413 23.8334H7.83246C10.1941 23.8334 11.44 22.5875 11.44 20.2259V18.1675C11.4508 15.795 10.205 14.5492 7.84329 14.5492Z" fill="#5B21B1"/>
</svg>
