<svg width="27" height="26" viewBox="0 0 27 26" fill="none" xmlns="http://www.w3.org/2000/svg">
<path d="M26.8841 7.80674C26.8864 8.21393 26.7742 8.61357 26.5603 8.96007C26.3464 9.30651 26.0393 9.58589 25.6742 9.76617L14.4192 15.3911C14.1163 15.5445 13.7815 15.6242 13.442 15.6238C13.1025 15.6242 12.7678 15.5445 12.4649 15.3911L1.20978 9.76617C0.845825 9.58584 0.539626 9.30718 0.32582 8.96182C0.112019 8.61641 -0.000826467 8.21812 1.62445e-05 7.81191C-0.00155544 7.40493 0.110949 7.0056 0.324781 6.65926C0.538607 6.31292 0.845189 6.03343 1.20978 5.85248L12.4649 0.227527C12.7681 0.0757714 13.1029 -0.00217685 13.442 4.6251e-05C13.7811 -0.00217685 14.116 0.0757714 14.4192 0.227527L25.6742 5.85248C26.0382 6.03286 26.3444 6.31152 26.5582 6.65688C26.772 7.00223 26.8849 7.40058 26.8841 7.80674Z" fill="#C3AFE3"/>
<path d="M25.6743 11.0378C26.0389 11.2188 26.3455 11.4983 26.5593 11.8446C26.7731 12.1909 26.8856 12.5903 26.8841 12.9973C26.8849 13.4035 26.7721 13.8018 26.5583 14.1472C26.3444 14.4925 26.0383 14.7712 25.6743 14.9516L14.4192 20.5817C14.1151 20.731 13.7809 20.8088 13.4421 20.8092C13.1033 20.8088 12.769 20.731 12.4649 20.5817L1.20982 14.9516C0.846488 14.7709 0.541044 14.4921 0.328133 14.1466C0.115216 13.8012 0.00336821 13.4031 0.00522424 12.9973C0.00287189 12.5901 0.115035 12.1905 0.32895 11.844C0.542869 11.4975 0.849906 11.2182 1.21499 11.0378L1.32875 10.981L3.63973 12.139L12.0048 16.3164C12.4511 16.5397 12.9431 16.6565 13.4421 16.6577C13.9427 16.6565 14.4364 16.5397 14.8845 16.3164L23.2444 12.139L25.5606 10.981L25.6743 11.0378Z" fill="#5B21B1"/>
<path d="M25.6743 16.2288C26.0382 16.4092 26.3444 16.6878 26.5582 17.0331C26.772 17.3785 26.8849 17.7768 26.8841 18.1831C26.8849 18.5893 26.772 18.9876 26.5582 19.3329C26.3444 19.6783 26.0382 19.9569 25.6743 20.1373L14.4192 25.7675C14.1163 25.9208 13.7815 26.0005 13.442 26.0001C13.1026 26.0005 12.7678 25.9208 12.4649 25.7675L1.20978 20.1373C0.846448 19.9566 0.541004 19.6778 0.328092 19.3324C0.115176 18.9869 0.00332791 18.5888 0.00518394 18.1831C0.00223704 17.7771 0.113635 17.3784 0.326671 17.0328C0.539706 16.6872 0.845755 16.4086 1.20978 16.2288L1.32871 16.1667L3.64487 17.3248L12.0099 21.5074C12.455 21.7284 12.9451 21.8434 13.442 21.8434C13.9405 21.8429 14.4322 21.7279 14.8793 21.5074L23.2495 17.3248L25.5554 16.1667L25.6743 16.2288Z" fill="#C3AFE3"/>
</svg>
