<svg width="22" height="22" viewBox="0 0 22 22" fill="none" xmlns="http://www.w3.org/2000/svg">
<path d="M16.4998 6.41658H12.8332L13.2915 4.58325H16.0415L16.4998 6.41658ZM10.9998 10.0832C10.6372 10.0832 10.2828 10.1908 9.98129 10.3922C9.6798 10.5937 9.44482 10.88 9.30606 11.215C9.1673 11.55 9.13099 11.9186 9.20173 12.2742C9.27247 12.6299 9.44708 12.9565 9.70348 13.2129C9.95987 13.4693 10.2865 13.6439 10.6422 13.7147C10.9978 13.7854 11.3664 13.7491 11.7014 13.6104C12.0364 13.4716 12.3228 13.2366 12.5242 12.9351C12.7256 12.6336 12.8332 12.2792 12.8332 11.9166C12.8332 11.4304 12.64 10.964 12.2962 10.6202C11.9524 10.2764 11.4861 10.0832 10.9998 10.0832Z" stroke="#C3AFE3" stroke-linecap="round" stroke-linejoin="round"/>
<path d="M10.0833 6.41661L9.42333 5.08744C9.34646 4.93488 9.22848 4.80683 9.08271 4.71774C8.93694 4.62866 8.76917 4.58209 8.59833 4.58327H3.66667C3.42355 4.58327 3.19039 4.67985 3.01849 4.85176C2.84658 5.02367 2.75 5.25683 2.75 5.49994V16.4999C2.75 16.7431 2.84658 16.9762 3.01849 17.1481C3.19039 17.32 3.42355 17.4166 3.66667 17.4166H18.3333C18.5764 17.4166 18.8096 17.32 18.9815 17.1481C19.1534 16.9762 19.25 16.7431 19.25 16.4999V7.33327C19.25 7.09016 19.1534 6.857 18.9815 6.68509C18.8096 6.51319 18.5764 6.41661 18.3333 6.41661H10.0833Z" stroke="#5B21B1" stroke-linecap="round" stroke-linejoin="round"/>
</svg>
