<svg width="26" height="26" viewBox="0 0 26 26" fill="none" xmlns="http://www.w3.org/2000/svg">
<path opacity="0.6" d="M13 23.8333C18.9831 23.8333 23.8333 18.9831 23.8333 13C23.8333 7.0169 18.9831 2.16666 13 2.16666C7.0169 2.16666 2.16666 7.0169 2.16666 13C2.16666 18.9831 7.0169 23.8333 13 23.8333Z" fill="white"/>
<path d="M17.0192 17.2575C16.8783 17.2575 16.7375 17.225 16.6075 17.1383L13.2492 15.1342C12.415 14.6358 11.7975 13.5417 11.7975 12.5775V8.13583C11.7975 7.69167 12.1658 7.32333 12.61 7.32333C13.0542 7.32333 13.4225 7.69167 13.4225 8.13583V12.5775C13.4225 12.9675 13.7475 13.5417 14.0833 13.7367L17.4417 15.7408C17.8317 15.9683 17.9508 16.4667 17.7233 16.8567C17.5608 17.1167 17.29 17.2575 17.0192 17.2575Z" fill="white"/>
</svg>
