<svg width="16" height="16" viewBox="0 0 16 16" fill="none" xmlns="http://www.w3.org/2000/svg">
<path d="M11.1671 2.37334V1.33334C11.1671 1.06001 10.9405 0.833344 10.6671 0.833344C10.3938 0.833344 10.1671 1.06001 10.1671 1.33334V2.33334H5.83381V1.33334C5.83381 1.06001 5.60714 0.833344 5.33381 0.833344C5.06048 0.833344 4.83381 1.06001 4.83381 1.33334V2.37334C3.03381 2.54001 2.16048 3.61334 2.02714 5.20668C2.01381 5.40001 2.17381 5.56001 2.36048 5.56001H13.6405C13.8338 5.56001 13.9938 5.39334 13.9738 5.20668C13.8405 3.61334 12.9671 2.54001 11.1671 2.37334Z" fill="#5B21B1"/>
<path opacity="0.3" d="M13.3333 6.56C13.7 6.56 14 6.86 14 7.22666V11.3333C14 13.3333 13 14.6667 10.6667 14.6667H5.33333C3 14.6667 2 13.3333 2 11.3333V7.22666C2 6.86 2.3 6.56 2.66667 6.56H13.3333Z" fill="#5B21B1"/>
<path d="M5.66667 9.99999C5.49333 9.99999 5.32 9.92665 5.19333 9.80665C5.07333 9.67998 5 9.50665 5 9.33332C5 9.15999 5.07333 8.98666 5.19333 8.85999C5.38 8.67333 5.67333 8.61331 5.92 8.71998C6.00667 8.75331 6.08 8.79999 6.14 8.85999C6.26 8.98666 6.33333 9.15999 6.33333 9.33332C6.33333 9.50665 6.26 9.67998 6.14 9.80665C6.01333 9.92665 5.84 9.99999 5.66667 9.99999Z" fill="#5B21B1"/>
<path d="M7.99967 9.99999C7.82634 9.99999 7.65301 9.92665 7.52634 9.80665C7.40634 9.67998 7.33301 9.50665 7.33301 9.33332C7.33301 9.15999 7.40634 8.98666 7.52634 8.85999C7.58634 8.79999 7.65967 8.75331 7.74634 8.71998C7.99301 8.61331 8.28634 8.67333 8.47301 8.85999C8.59301 8.98666 8.66634 9.15999 8.66634 9.33332C8.66634 9.50665 8.59301 9.67998 8.47301 9.80665C8.43967 9.83331 8.40634 9.85998 8.37301 9.88664C8.33301 9.91331 8.29301 9.93333 8.25301 9.94666C8.21301 9.96666 8.17301 9.97999 8.13301 9.98666C8.08634 9.99333 8.04634 9.99999 7.99967 9.99999Z" fill="#5B21B1"/>
<path d="M10.3337 10C10.1603 10 9.98699 9.92666 9.86033 9.80666C9.74033 9.67999 9.66699 9.50666 9.66699 9.33333C9.66699 9.16 9.74033 8.98667 9.86033 8.86C9.92699 8.8 9.99366 8.75332 10.0803 8.71999C10.2003 8.66666 10.3337 8.65332 10.467 8.67999C10.507 8.68666 10.547 8.69999 10.587 8.71999C10.627 8.73332 10.667 8.75334 10.707 8.78001C10.7403 8.80667 10.7737 8.83334 10.807 8.86C10.927 8.98667 11.0003 9.16 11.0003 9.33333C11.0003 9.50666 10.927 9.67999 10.807 9.80666C10.7737 9.83332 10.7403 9.85999 10.707 9.88665C10.667 9.91332 10.627 9.93334 10.587 9.94667C10.547 9.96667 10.507 9.98 10.467 9.98667C10.4203 9.99334 10.3737 10 10.3337 10Z" fill="#5B21B1"/>
<path d="M5.66667 12.3333C5.58 12.3333 5.49333 12.3134 5.41333 12.28C5.32667 12.2467 5.26 12.2 5.19333 12.14C5.07333 12.0133 5 11.84 5 11.6667C5 11.4933 5.07333 11.32 5.19333 11.1933C5.26 11.1333 5.32667 11.0867 5.41333 11.0533C5.53333 11 5.66667 10.9867 5.8 11.0133C5.84 11.02 5.88 11.0333 5.92 11.0533C5.96 11.0667 6 11.0867 6.04 11.1134C6.07333 11.14 6.10667 11.1667 6.14 11.1933C6.26 11.32 6.33333 11.4933 6.33333 11.6667C6.33333 11.84 6.26 12.0133 6.14 12.14C6.10667 12.1667 6.07333 12.2 6.04 12.22C6 12.2467 5.96 12.2667 5.92 12.28C5.88 12.3 5.84 12.3133 5.8 12.32C5.75333 12.3267 5.71333 12.3333 5.66667 12.3333Z" fill="#5B21B1"/>
<path d="M7.99967 12.3333C7.82634 12.3333 7.65301 12.26 7.52634 12.14C7.40634 12.0133 7.33301 11.84 7.33301 11.6667C7.33301 11.4933 7.40634 11.32 7.52634 11.1933C7.77301 10.9467 8.22634 10.9467 8.47301 11.1933C8.59301 11.32 8.66634 11.4933 8.66634 11.6667C8.66634 11.84 8.59301 12.0133 8.47301 12.14C8.34634 12.26 8.17301 12.3333 7.99967 12.3333Z" fill="#5B21B1"/>
<path d="M10.3337 12.3333C10.1603 12.3333 9.98699 12.26 9.86033 12.14C9.74033 12.0133 9.66699 11.84 9.66699 11.6667C9.66699 11.4933 9.74033 11.32 9.86033 11.1933C10.107 10.9467 10.5603 10.9467 10.807 11.1933C10.927 11.32 11.0003 11.4933 11.0003 11.6667C11.0003 11.84 10.927 12.0133 10.807 12.14C10.6803 12.26 10.507 12.3333 10.3337 12.3333Z" fill="#5B21B1"/>
</svg>
