<svg width="16" height="16" viewBox="0 0 16 16" fill="none" xmlns="http://www.w3.org/2000/svg">
<path opacity="0.3" d="M10.8267 2.43332H5.17336C3.52669 2.43332 2.19336 3.77332 2.19336 5.41332V11.6867C2.19336 13.3267 3.53336 14.6667 5.17336 14.6667H10.82C12.4667 14.6667 13.8 13.3267 13.8 11.6867V5.41332C13.8067 3.76665 12.4667 2.43332 10.8267 2.43332Z" fill="#5B21B1"/>
<path d="M9.56618 1.33334H6.43285C5.73952 1.33334 5.17285 1.89334 5.17285 2.58668V3.21334C5.17285 3.90668 5.73285 4.46668 6.42618 4.46668H9.56618C10.2595 4.46668 10.8195 3.90668 10.8195 3.21334V2.58668C10.8262 1.89334 10.2595 1.33334 9.56618 1.33334Z" fill="#5B21B1"/>
<path d="M9.99967 8.63333H5.33301C5.05967 8.63333 4.83301 8.40666 4.83301 8.13333C4.83301 7.86 5.05967 7.63333 5.33301 7.63333H9.99967C10.273 7.63333 10.4997 7.86 10.4997 8.13333C10.4997 8.40666 10.273 8.63333 9.99967 8.63333Z" fill="#5B21B1"/>
<path d="M8.25301 11.3H5.33301C5.05967 11.3 4.83301 11.0733 4.83301 10.8C4.83301 10.5267 5.05967 10.3 5.33301 10.3H8.25301C8.52634 10.3 8.75301 10.5267 8.75301 10.8C8.75301 11.0733 8.52634 11.3 8.25301 11.3Z" fill="#5B21B1"/>
</svg>
