<svg width="20" height="20" viewBox="0 0 20 20" fill="none" xmlns="http://www.w3.org/2000/svg">
<path opacity="0.7" d="M13.5329 3.04167H6.46621C4.40788 3.04167 2.74121 4.71667 2.74121 6.76667V14.6083C2.74121 16.6583 4.41621 18.3333 6.46621 18.3333H13.5245C15.5829 18.3333 17.2495 16.6583 17.2495 14.6083V6.76667C17.2579 4.70834 15.5829 3.04167 13.5329 3.04167Z" fill="white"/>
<path d="M11.9585 1.66667H8.0418C7.17513 1.66667 6.4668 2.36667 6.4668 3.23334V4.01667C6.4668 4.88334 7.1668 5.58334 8.03346 5.58334H11.9585C12.8251 5.58334 13.5251 4.88334 13.5251 4.01667V3.23334C13.5335 2.36667 12.8251 1.66667 11.9585 1.66667Z" fill="white"/>
<path d="M12.5003 10.7917H6.66699C6.32533 10.7917 6.04199 10.5083 6.04199 10.1667C6.04199 9.82501 6.32533 9.54167 6.66699 9.54167H12.5003C12.842 9.54167 13.1253 9.82501 13.1253 10.1667C13.1253 10.5083 12.842 10.7917 12.5003 10.7917Z" fill="white"/>
<path d="M10.317 14.125H6.66699C6.32533 14.125 6.04199 13.8417 6.04199 13.5C6.04199 13.1583 6.32533 12.875 6.66699 12.875H10.317C10.6587 12.875 10.942 13.1583 10.942 13.5C10.942 13.8417 10.6587 14.125 10.317 14.125Z" fill="white"/>
</svg>
