<svg width="16" height="16" viewBox="0 0 16 16" fill="none" xmlns="http://www.w3.org/2000/svg">
<path d="M2.02002 5.99996V13.3333C2.02002 13.5101 2.09026 13.6797 2.21528 13.8047C2.34031 13.9297 2.50988 14 2.68669 14H13.3534C13.5302 14 13.6997 13.9297 13.8248 13.8047C13.9498 13.6797 14.02 13.5101 14.02 13.3333V5.99996M2.02002 5.99996H14.02M2.02002 5.99996V3.33329C2.02002 3.15648 2.09026 2.98691 2.21528 2.86189C2.34031 2.73686 2.50988 2.66663 2.68669 2.66663H13.3534C13.5302 2.66663 13.6997 2.73686 13.8248 2.86189C13.9498 2.98691 14.02 3.15648 14.02 3.33329V5.99996" stroke="#5B21B1" stroke-linecap="round" stroke-linejoin="round"/>
<path d="M6.37988 9.5L7.04655 10.6547L9.64463 9.1547" stroke="#C3AFE3" stroke-linecap="round" stroke-linejoin="round"/>
<path d="M10.6868 2V4M5.35352 2V4" stroke="#C3AFE3" stroke-linecap="round" stroke-linejoin="round"/>
</svg>
