<svg width="22" height="22" viewBox="0 0 22 22" fill="none" xmlns="http://www.w3.org/2000/svg">
<path opacity="0.3" d="M14.8867 3.34583H7.11337C4.8492 3.34583 3.01587 5.18833 3.01587 7.44333V16.0692C3.01587 18.3242 4.85837 20.1667 7.11337 20.1667H14.8775C17.1417 20.1667 18.975 18.3242 18.975 16.0692V7.44333C18.9842 5.17916 17.1417 3.34583 14.8867 3.34583Z" fill="#5B21B1"/>
<path d="M13.1541 1.83334H8.84578C7.89245 1.83334 7.11328 2.60334 7.11328 3.55668V4.41834C7.11328 5.37168 7.88328 6.14168 8.83661 6.14168H13.1541C14.1074 6.14168 14.8774 5.37168 14.8774 4.41834V3.55668C14.8866 2.60334 14.1074 1.83334 13.1541 1.83334Z" fill="#5B21B1"/>
<path d="M9.90909 15.5375C9.73492 15.5375 9.56075 15.4733 9.42325 15.3358L8.04825 13.9608C7.78242 13.695 7.78242 13.255 8.04825 12.9892C8.31409 12.7233 8.75409 12.7233 9.01992 12.9892L9.90909 13.8783L13.0899 10.6975C13.3558 10.4317 13.7958 10.4317 14.0616 10.6975C14.3274 10.9633 14.3274 11.4033 14.0616 11.6692L10.3949 15.3358C10.2666 15.4733 10.0833 15.5375 9.90909 15.5375Z" fill="#5B21B1"/>
</svg>
