<svg width="161" height="93" viewBox="0 0 161 93" fill="none" xmlns="http://www.w3.org/2000/svg">
<path d="M43.1471 21.08C47.2538 21.08 50.5438 22.2 53.0171 24.44C55.4905 26.6333 56.7271 30.18 56.7271 35.08V60H46.2971L46.2971 37.67C46.2971 34.9167 45.8071 32.8633 44.8271 31.51C43.8471 30.11 42.2838 29.41 40.1371 29.41C36.9638 29.41 34.7938 30.5067 33.6271 32.7C32.4605 34.8467 31.8771 37.95 31.8771 42.01L31.8771 60H21.4471L21.4471 21.78L29.4271 21.78L30.8271 26.68H31.3871C32.2271 25.3733 33.2538 24.3233 34.4671 23.53C35.6805 22.69 37.0338 22.0833 38.5271 21.71C40.0205 21.29 41.5605 21.08 43.1471 21.08Z" fill="#181B34"/>
<path d="M86.841 21.08C90.9476 21.08 94.2376 22.2 96.711 24.44C99.1843 26.6333 100.421 30.18 100.421 35.08V60H89.991L89.991 37.67C89.991 34.9167 89.501 32.8633 88.521 31.51C87.541 30.11 85.9776 29.41 83.831 29.41C80.6576 29.41 78.4876 30.5067 77.321 32.7C76.1543 34.8467 75.571 37.95 75.571 42.01L75.571 60H65.141L65.141 21.78L73.121 21.78L74.521 26.68H75.081C75.921 25.3733 76.9476 24.3233 78.161 23.53C79.3743 22.69 80.7276 22.0833 82.221 21.71C83.7143 21.29 85.2543 21.08 86.841 21.08Z" fill="#181B34"/>
<rect x="2.56787" y="21.6306" width="9.73377" height="37.6372" fill="#181B34"/>
<rect x="110.072" y="21.6306" width="9.73377" height="37.6372" fill="#B70909"/>
<rect x="147.926" y="21.6306" width="9.73377" height="37.6372" fill="#181B34"/>
<rect x="128.891" y="15.3576" width="9.73377" height="43.9101" fill="#B70909"/>
<path d="M2.56787 11.2479L12.3016 4.10977L12.3016 18.386H2.56787L2.56787 11.2479Z" fill="#181B34"/>
<rect x="109.855" y="5.84016" width="47.8036" height="9.51747" fill="#B70909"/>
<path d="M3.93119 83.6907L3.93119 81.0447H10.2312C10.5392 81.0447 10.8192 80.9677 11.0712 80.8137C11.3232 80.6597 11.5262 80.4567 11.6802 80.2047C11.8342 79.9387 11.9112 79.6517 11.9112 79.3437C11.9112 79.0217 11.8342 78.7347 11.6802 78.4827C11.5262 78.2167 11.3232 78.0067 11.0712 77.8527C10.8192 77.6987 10.5392 77.6217 10.2312 77.6217H7.77419C6.94819 77.6217 6.19919 77.4537 5.52719 77.1177C4.85519 76.7817 4.31619 76.2987 3.91019 75.6687C3.51819 75.0247 3.32219 74.2547 3.32219 73.3587C3.32219 72.4767 3.51119 71.7137 3.88919 71.0697C4.26719 70.4117 4.77819 69.9007 5.42219 69.5367C6.06619 69.1727 6.78019 68.9907 7.56419 68.9907H13.9482V71.6367H7.85819C7.57819 71.6367 7.31919 71.7137 7.08119 71.8677C6.84319 72.0077 6.65419 72.1967 6.51419 72.4347C6.38819 72.6727 6.32519 72.9387 6.32519 73.2327C6.32519 73.5267 6.38819 73.7927 6.51419 74.0307C6.65419 74.2687 6.84319 74.4577 7.08119 74.5977C7.31919 74.7377 7.57819 74.8077 7.85819 74.8077H10.3992C11.3092 74.8077 12.1002 74.9827 12.7722 75.3327C13.4442 75.6827 13.9622 76.1727 14.3262 76.8027C14.7042 77.4327 14.8932 78.1677 14.8932 79.0077C14.8932 80.0017 14.6972 80.8487 14.3052 81.5487C13.9272 82.2487 13.4092 82.7807 12.7512 83.1447C12.1072 83.5087 11.3932 83.6907 10.6092 83.6907H3.93119ZM30.5377 83.9427C29.4317 83.9427 28.4447 83.6977 27.5767 83.2077C26.7087 82.7037 26.0227 82.0317 25.5187 81.1917C25.0147 80.3377 24.7627 79.3857 24.7627 78.3357C24.7627 77.2857 25.0147 76.3407 25.5187 75.5007C26.0227 74.6467 26.7087 73.9747 27.5767 73.4847C28.4447 72.9807 29.4317 72.7287 30.5377 72.7287C31.6437 72.7287 32.6307 72.9807 33.4987 73.4847C34.3667 73.9747 35.0527 74.6467 35.5567 75.5007C36.0607 76.3407 36.3127 77.2857 36.3127 78.3357C36.3127 79.3857 36.0607 80.3377 35.5567 81.1917C35.0527 82.0317 34.3667 82.7037 33.4987 83.2077C32.6307 83.6977 31.6437 83.9427 30.5377 83.9427ZM30.5377 81.4857C31.1257 81.4857 31.6297 81.3457 32.0497 81.0657C32.4837 80.7857 32.8127 80.4077 33.0367 79.9317C33.2747 79.4557 33.3937 78.9237 33.3937 78.3357C33.3937 77.7477 33.2747 77.2157 33.0367 76.7397C32.8127 76.2637 32.4837 75.8857 32.0497 75.6057C31.6297 75.3257 31.1257 75.1857 30.5377 75.1857C29.9497 75.1857 29.4387 75.3257 29.0047 75.6057C28.5847 75.8857 28.2557 76.2637 28.0177 76.7397C27.7937 77.2157 27.6817 77.7477 27.6817 78.3357C27.6817 78.9237 27.7937 79.4557 28.0177 79.9317C28.2557 80.4077 28.5847 80.7857 29.0047 81.0657C29.4387 81.3457 29.9497 81.4857 30.5377 81.4857ZM47.5292 83.6907L47.5292 75.4377H45.6602V72.9807H47.5292V71.4057C47.5292 70.4537 47.7952 69.7117 48.3272 69.1797C48.8732 68.6337 49.6222 68.3607 50.5742 68.3607H53.6192V70.8177H51.0782C50.8962 70.8177 50.7352 70.8807 50.5952 71.0067C50.4692 71.1327 50.4062 71.2937 50.4062 71.4897V72.9807H53.1572V75.4377H50.4062L50.4062 83.6907H47.5292ZM66.8892 83.6907C65.9372 83.6907 65.1882 83.4177 64.6422 82.8717C64.1102 82.3257 63.8442 81.5837 63.8442 80.6457V70.2927H66.7212V80.5617C66.7212 80.7437 66.7842 80.9047 66.9102 81.0447C67.0502 81.1707 67.2112 81.2337 67.3932 81.2337H69.7242V83.6907H66.8892ZM62.0172 75.4377V72.9807H69.7242V75.4377H62.0172ZM84.298 83.9427C83.57 83.9427 82.905 83.8027 82.303 83.5227C81.701 83.2287 81.218 82.7877 80.854 82.1997C80.504 81.6117 80.329 80.8697 80.329 79.9737V72.9807H83.206V80.3937C83.206 80.5897 83.255 80.7717 83.353 80.9397C83.451 81.1077 83.584 81.2407 83.752 81.3387C83.92 81.4367 84.102 81.4857 84.298 81.4857C84.494 81.4857 84.676 81.4367 84.844 81.3387C85.012 81.2407 85.145 81.1077 85.243 80.9397C85.341 80.7717 85.39 80.5897 85.39 80.3937V76.6977C85.39 75.8577 85.551 75.1437 85.873 74.5557C86.209 73.9677 86.671 73.5197 87.259 73.2117C87.861 72.8897 88.561 72.7287 89.359 72.7287C90.157 72.7287 90.85 72.8897 91.438 73.2117C92.04 73.5197 92.502 73.9677 92.824 74.5557C93.16 75.1437 93.328 75.8577 93.328 76.6977V80.3937C93.328 80.5897 93.377 80.7717 93.475 80.9397C93.573 81.1077 93.706 81.2407 93.874 81.3387C94.042 81.4367 94.224 81.4857 94.42 81.4857C94.63 81.4857 94.812 81.4367 94.966 81.3387C95.134 81.2407 95.267 81.1077 95.365 80.9397C95.463 80.7717 95.512 80.5897 95.512 80.3937V72.9807H98.389V79.9737C98.389 80.8697 98.207 81.6117 97.843 82.1997C97.493 82.7877 97.017 83.2287 96.415 83.5227C95.813 83.8027 95.148 83.9427 94.42 83.9427C93.706 83.9427 93.048 83.8027 92.446 83.5227C91.844 83.2287 91.361 82.7877 90.997 82.1997C90.633 81.6117 90.451 80.8697 90.451 79.9737V76.2777C90.451 76.0677 90.402 75.8857 90.304 75.7317C90.206 75.5637 90.073 75.4307 89.905 75.3327C89.751 75.2347 89.569 75.1857 89.359 75.1857C89.163 75.1857 88.981 75.2347 88.813 75.3327C88.645 75.4307 88.512 75.5637 88.414 75.7317C88.316 75.8857 88.267 76.0677 88.267 76.2777V79.9737C88.267 80.8697 88.085 81.6117 87.721 82.1997C87.357 82.7877 86.874 83.2287 86.272 83.5227C85.684 83.8027 85.026 83.9427 84.298 83.9427ZM113.745 83.9427C112.765 83.9427 111.911 83.6907 111.183 83.1867C110.455 82.6827 109.888 82.0107 109.482 81.1707C109.09 80.3167 108.894 79.3787 108.894 78.3567C108.894 77.3067 109.118 76.3547 109.566 75.5007C110.028 74.6467 110.686 73.9747 111.54 73.4847C112.394 72.9807 113.416 72.7287 114.606 72.7287C115.81 72.7287 116.825 72.9807 117.651 73.4847C118.477 73.9887 119.107 74.6677 119.541 75.5217C119.975 76.3757 120.192 77.3207 120.192 78.3567V83.6907H117.315V81.9057H117.273C117.063 82.2837 116.797 82.6267 116.475 82.9347C116.167 83.2427 115.789 83.4877 115.341 83.6697C114.893 83.8517 114.361 83.9427 113.745 83.9427ZM114.564 81.4857C115.124 81.4857 115.607 81.3457 116.013 81.0657C116.419 80.7857 116.727 80.4077 116.937 79.9317C117.161 79.4417 117.273 78.9027 117.273 78.3147C117.273 77.7267 117.161 77.2017 116.937 76.7397C116.727 76.2637 116.419 75.8857 116.013 75.6057C115.607 75.3257 115.124 75.1857 114.564 75.1857C113.99 75.1857 113.493 75.3257 113.073 75.6057C112.667 75.8857 112.352 76.2637 112.128 76.7397C111.918 77.2017 111.813 77.7267 111.813 78.3147C111.813 78.9027 111.918 79.4417 112.128 79.9317C112.352 80.4077 112.667 80.7857 113.073 81.0657C113.493 81.3457 113.99 81.4857 114.564 81.4857ZM131.211 83.6907V76.0257C131.211 75.0737 131.477 74.3317 132.009 73.7997C132.555 73.2537 133.304 72.9807 134.256 72.9807H137.217V75.4377H134.76C134.578 75.4377 134.417 75.5007 134.277 75.6267C134.151 75.7527 134.088 75.9137 134.088 76.1097V83.6907H131.211ZM152.598 83.6907C151.38 83.6907 150.316 83.4597 149.406 82.9977C148.51 82.5217 147.81 81.8777 147.306 81.0657C146.816 80.2537 146.571 79.3437 146.571 78.3357C146.571 77.2017 146.802 76.2147 147.264 75.3747C147.726 74.5347 148.356 73.8837 149.154 73.4217C149.952 72.9597 150.855 72.7287 151.863 72.7287C153.067 72.7287 154.04 72.9807 154.782 73.4847C155.538 73.9887 156.091 74.6677 156.441 75.5217C156.791 76.3617 156.966 77.2997 156.966 78.3357C156.966 78.4757 156.959 78.6437 156.945 78.8397C156.931 79.0217 156.91 79.1617 156.882 79.2597H149.637C149.749 79.6937 149.938 80.0577 150.204 80.3517C150.484 80.6457 150.827 80.8697 151.233 81.0237C151.653 81.1637 152.122 81.2337 152.64 81.2337H155.622V83.6907H152.598ZM149.616 77.3277H154.089C154.061 77.0617 154.012 76.8167 153.942 76.5927C153.872 76.3547 153.774 76.1447 153.648 75.9627C153.522 75.7807 153.375 75.6267 153.207 75.5007C153.039 75.3747 152.843 75.2767 152.619 75.2067C152.395 75.1367 152.15 75.1017 151.884 75.1017C151.534 75.1017 151.219 75.1647 150.939 75.2907C150.673 75.4167 150.449 75.5847 150.267 75.7947C150.085 76.0047 149.938 76.2427 149.826 76.5087C149.728 76.7747 149.658 77.0477 149.616 77.3277Z" fill="#181B34"/>
</svg>
