<svg width="22" height="22" viewBox="0 0 22 22" fill="none" xmlns="http://www.w3.org/2000/svg">
<path opacity="0.3" d="M8.25 6.59998V15.3908C8.25 18.3333 10.0833 20.1666 13.0167 20.1666H15.3908C18.3242 20.1666 20.1575 18.3333 20.1575 15.4V6.59998C20.1667 3.66665 18.3333 1.83331 15.4 1.83331H13.0167C10.0833 1.83331 8.25 3.66665 8.25 6.59998Z" fill="#5B21B1"/>
<path d="M11.3941 7.44331L14.4649 10.5141C14.7308 10.78 14.7308 11.22 14.4649 11.4858L11.3941 14.5566C11.1283 14.8225 10.6883 14.8225 10.4224 14.5566C10.1566 14.2908 10.1566 13.8508 10.4224 13.585L12.3199 11.6875H2.52075C2.14492 11.6875 1.83325 11.3758 1.83325 11C1.83325 10.6241 2.14492 10.3125 2.52075 10.3125H12.3199L10.4224 8.41498C10.2849 8.27748 10.2208 8.10331 10.2208 7.92914C10.2208 7.75498 10.2849 7.58081 10.4224 7.44331C10.6883 7.16831 11.1191 7.16831 11.3941 7.44331Z" fill="#5B21B1"/>
</svg>
