<svg width="16" height="16" viewBox="0 0 16 16" fill="none" xmlns="http://www.w3.org/2000/svg">
<path d="M9.33317 3.33337H12.6665C12.8433 3.33337 13.0129 3.40361 13.1379 3.52864C13.2629 3.65366 13.3332 3.82323 13.3332 4.00004V13.3334C13.3332 13.5102 13.2629 13.6798 13.1379 13.8048C13.0129 13.9298 12.8433 14 12.6665 14H3.33317C3.15636 14 2.98679 13.9298 2.86177 13.8048C2.73674 13.6798 2.6665 13.5102 2.6665 13.3334V4.00004C2.6665 3.82323 2.73674 3.65366 2.86177 3.52864C2.98679 3.40361 3.15636 3.33337 3.33317 3.33337H6.6665" stroke="#5B21B1" stroke-linecap="round" stroke-linejoin="round"/>
<path d="M9.3335 5.33333V2.66667C9.3335 2.29848 9.03502 2 8.66683 2H7.3335C6.96531 2 6.66683 2.29848 6.66683 2.66667V5.33333C6.66683 5.70152 6.96531 6 7.3335 6H8.66683C9.03502 6 9.3335 5.70152 9.3335 5.33333Z" stroke="#C3AFE3" stroke-linecap="round" stroke-linejoin="round"/>
</svg>
