<svg width="20" height="20" viewBox="0 0 20 20" fill="none" xmlns="http://www.w3.org/2000/svg">
<path d="M8.23324 7.5L11.7416 2.5L15.8332 5.36667L14.3416 7.5H8.23324ZM8.23324 7.5H4.6499L7.5749 3.33333L9.9999 5L8.23324 7.5Z" stroke="#C3AFE3" stroke-linecap="round" stroke-linejoin="round"/>
<path d="M16.6667 14.1667V16.6667C16.6667 16.8877 16.5789 17.0996 16.4226 17.2559C16.2663 17.4122 16.0543 17.5 15.8333 17.5H3.33333C3.11232 17.5 2.90036 17.4122 2.74408 17.2559C2.5878 17.0996 2.5 16.8877 2.5 16.6667V8.33333C2.5 8.11232 2.5878 7.90036 2.74408 7.74408C2.90036 7.5878 3.11232 7.5 3.33333 7.5H15.8333C16.0543 7.5 16.2663 7.5878 16.4226 7.74408C16.5789 7.90036 16.6667 8.11232 16.6667 8.33333V10.8333" stroke="white" stroke-linecap="round" stroke-linejoin="round"/>
<path d="M13.3333 10.8334H17.5V14.1667H13.3333C13.1123 14.1667 12.9004 14.0789 12.7441 13.9226C12.5878 13.7663 12.5 13.5544 12.5 13.3334V11.6667C12.5 11.4457 12.5878 11.2337 12.7441 11.0775C12.9004 10.9212 13.1123 10.8334 13.3333 10.8334Z" stroke="#C3AFE3" stroke-linecap="round" stroke-linejoin="round"/>
</svg>
