<svg width="22" height="22" viewBox="0 0 22 22" fill="none" xmlns="http://www.w3.org/2000/svg">
<path d="M20.1667 5.49998V7.71831C20.1667 9.16665 19.2501 10.0833 17.8017 10.0833H14.6667V3.67581C14.6667 2.65831 15.5009 1.83331 16.5184 1.83331C17.5176 1.84248 18.4342 2.24581 19.0942 2.90581C19.7542 3.57498 20.1667 4.49165 20.1667 5.49998Z" fill="#5B21B1"/>
<path opacity="0.3" d="M1.83325 6.41665V19.25C1.83325 20.0108 2.69492 20.4416 3.29992 19.9833L4.86742 18.81C5.23408 18.535 5.74742 18.5716 6.07742 18.9016L7.59908 20.4325C7.95658 20.79 8.54326 20.79 8.90076 20.4325L10.4408 18.8925C10.7616 18.5716 11.2749 18.535 11.6324 18.81L13.1999 19.9833C13.8049 20.4325 14.6666 20.0016 14.6666 19.25V3.66665C14.6666 2.65831 15.4916 1.83331 16.4999 1.83331H6.41659H5.49992C2.74992 1.83331 1.83325 3.47415 1.83325 5.49998V6.41665Z" fill="#5B21B1"/>
<path d="M11 8.9375H5.5C5.12417 8.9375 4.8125 8.62583 4.8125 8.25C4.8125 7.87417 5.12417 7.5625 5.5 7.5625H11C11.3758 7.5625 11.6875 7.87417 11.6875 8.25C11.6875 8.62583 11.3758 8.9375 11 8.9375Z" fill="#5B21B1"/>
<path d="M10.3125 12.6042H6.1875C5.81167 12.6042 5.5 12.2925 5.5 11.9167C5.5 11.5409 5.81167 11.2292 6.1875 11.2292H10.3125C10.6883 11.2292 11 11.5409 11 11.9167C11 12.2925 10.6883 12.6042 10.3125 12.6042Z" fill="#5B21B1"/>
</svg>
