<svg width="16" height="16" viewBox="0 0 16 16" fill="none" xmlns="http://www.w3.org/2000/svg">
<path d="M12.2932 10.4C12.1872 10.2708 12.0366 10.1861 11.8712 10.1626C11.7057 10.1392 11.5375 10.1787 11.3998 10.2734C10.3995 10.9614 9.21394 11.3297 7.99984 11.3297C6.78573 11.3297 5.60019 10.9614 4.59984 10.2734C4.46215 10.1787 4.29393 10.1392 4.12849 10.1626C3.96304 10.1861 3.81244 10.2708 3.7065 10.4C3.0344 11.23 2.66731 12.2654 2.6665 13.3334C2.6665 13.5102 2.73674 13.6797 2.86177 13.8048C2.98679 13.9298 3.15636 14 3.33317 14H12.6665C12.8433 14 13.0129 13.9298 13.1379 13.8048C13.2629 13.6797 13.3332 13.5102 13.3332 13.3334C13.3324 12.2654 12.9653 11.23 12.2932 10.4Z" stroke="#C3AFE3" stroke-linecap="round" stroke-linejoin="round"/>
<path d="M7.99984 8.66667C9.84079 8.66667 11.3332 7.17428 11.3332 5.33333C11.3332 3.49238 9.84079 2 7.99984 2C6.15889 2 4.6665 3.49238 4.6665 5.33333C4.6665 7.17428 6.15889 8.66667 7.99984 8.66667Z" stroke="#5B21B1" stroke-linecap="round" stroke-linejoin="round"/>
</svg>
