<svg width="22" height="22" viewBox="0 0 22 22" fill="none" xmlns="http://www.w3.org/2000/svg">
<path opacity="0.3" d="M19.3234 7.86501V14.135C19.3234 15.1616 18.7733 16.115 17.8842 16.6375L12.4392 19.7817C11.55 20.295 10.45 20.295 9.55166 19.7817L4.10665 16.6375C3.21749 16.1242 2.66748 15.1708 2.66748 14.135V7.86501C2.66748 6.83834 3.21749 5.88497 4.10665 5.36247L9.55166 2.21831C10.4408 1.70498 11.5408 1.70498 12.4392 2.21831L17.8842 5.36247C18.7733 5.88497 19.3234 6.82918 19.3234 7.86501Z" fill="#5B21B1"/>
<path d="M11 12.6042C10.6242 12.6042 10.3125 12.2925 10.3125 11.9167V7.10419C10.3125 6.72835 10.6242 6.41669 11 6.41669C11.3758 6.41669 11.6875 6.72835 11.6875 7.10419V11.9167C11.6875 12.2925 11.3758 12.6042 11 12.6042Z" fill="#5B21B1"/>
<path d="M10.9999 15.8125C10.8808 15.8125 10.7616 15.785 10.6516 15.7391C10.5324 15.6933 10.4407 15.6292 10.3491 15.5467C10.2666 15.455 10.2024 15.3541 10.1474 15.2441C10.1016 15.1341 10.0833 15.015 10.0833 14.8958C10.0833 14.6575 10.1749 14.4191 10.3491 14.245C10.4407 14.1625 10.5324 14.0983 10.6516 14.0525C10.9907 13.9058 11.3941 13.9883 11.6508 14.245C11.7333 14.3366 11.7974 14.4283 11.8432 14.5475C11.8891 14.6575 11.9166 14.7766 11.9166 14.8958C11.9166 15.015 11.8891 15.1341 11.8432 15.2441C11.7974 15.3541 11.7333 15.455 11.6508 15.5467C11.4766 15.7208 11.2474 15.8125 10.9999 15.8125Z" fill="#5B21B1"/>
</svg>
